<svg width="695" height="588" xmlns="http://www.w3.org/2000/svg" xmlns:xlink="http://www.w3.org/1999/xlink" overflow="hidden"><defs><clipPath id="clip0"><path d="M229 61 924 61 924 649 229 649Z" fill-rule="evenodd" clip-rule="evenodd"/></clipPath><clipPath id="clip1"><path d="M239 62 335 62 335 158 239 158Z" fill-rule="evenodd" clip-rule="evenodd"/></clipPath><clipPath id="clip2"><path d="M239 62 335 62 335 158 239 158Z" fill-rule="evenodd" clip-rule="evenodd"/></clipPath><clipPath id="clip3"><path d="M239 62 335 62 335 158 239 158Z" fill-rule="evenodd" clip-rule="evenodd"/></clipPath><clipPath id="clip4"><path d="M289 62 385 62 385 158 289 158Z" fill-rule="evenodd" clip-rule="evenodd"/></clipPath><clipPath id="clip5"><path d="M289 62 385 62 385 158 289 158Z" fill-rule="evenodd" clip-rule="evenodd"/></clipPath><clipPath id="clip6"><path d="M289 62 385 62 385 158 289 158Z" fill-rule="evenodd" clip-rule="evenodd"/></clipPath><clipPath id="clip7"><path d="M339 62 435 62 435 158 339 158Z" fill-rule="evenodd" clip-rule="evenodd"/></clipPath><clipPath id="clip8"><path d="M339 62 435 62 435 158 339 158Z" fill-rule="evenodd" clip-rule="evenodd"/></clipPath><clipPath id="clip9"><path d="M339 62 435 62 435 158 339 158Z" fill-rule="evenodd" clip-rule="evenodd"/></clipPath><clipPath id="clip10"><path d="M489 62 585 62 585 158 489 158Z" fill-rule="evenodd" clip-rule="evenodd"/></clipPath><clipPath id="clip11"><path d="M489 62 585 62 585 158 489 158Z" fill-rule="evenodd" clip-rule="evenodd"/></clipPath><clipPath id="clip12"><path d="M489 62 585 62 585 158 489 158Z" fill-rule="evenodd" clip-rule="evenodd"/></clipPath><clipPath id="clip13"><path d="M439 62 535 62 535 158 439 158Z" fill-rule="evenodd" clip-rule="evenodd"/></clipPath><clipPath id="clip14"><path d="M439 62 535 62 535 158 439 158Z" fill-rule="evenodd" clip-rule="evenodd"/></clipPath><clipPath id="clip15"><path d="M439 62 535 62 535 158 439 158Z" fill-rule="evenodd" clip-rule="evenodd"/></clipPath><clipPath id="clip16"><path d="M539 62 635 62 635 158 539 158Z" fill-rule="evenodd" clip-rule="evenodd"/></clipPath><clipPath id="clip17"><path d="M539 62 635 62 635 158 539 158Z" fill-rule="evenodd" clip-rule="evenodd"/></clipPath><clipPath id="clip18"><path d="M539 62 635 62 635 158 539 158Z" fill-rule="evenodd" clip-rule="evenodd"/></clipPath><clipPath id="clip19"><path d="M389 62 485 62 485 158 389 158Z" fill-rule="evenodd" clip-rule="evenodd"/></clipPath><clipPath id="clip20"><path d="M389 62 485 62 485 158 389 158Z" fill-rule="evenodd" clip-rule="evenodd"/></clipPath><clipPath id="clip21"><path d="M389 62 485 62 485 158 389 158Z" fill-rule="evenodd" clip-rule="evenodd"/></clipPath><clipPath id="clip22"><path d="M349 552 445 552 445 648 349 648Z" fill-rule="evenodd" clip-rule="evenodd"/></clipPath><clipPath id="clip23"><path d="M349 552 445 552 445 648 349 648Z" fill-rule="evenodd" clip-rule="evenodd"/></clipPath><clipPath id="clip24"><path d="M349 552 445 552 445 648 349 648Z" fill-rule="evenodd" clip-rule="evenodd"/></clipPath><clipPath id="clip25"><path d="M436 552 532 552 532 648 436 648Z" fill-rule="evenodd" clip-rule="evenodd"/></clipPath><clipPath id="clip26"><path d="M436 552 532 552 532 648 436 648Z" fill-rule="evenodd" clip-rule="evenodd"/></clipPath><clipPath id="clip27"><path d="M436 552 532 552 532 648 436 648Z" fill-rule="evenodd" clip-rule="evenodd"/></clipPath><clipPath id="clip28"><path d="M392 552 488 552 488 648 392 648Z" fill-rule="evenodd" clip-rule="evenodd"/></clipPath><clipPath id="clip29"><path d="M392 552 488 552 488 648 392 648Z" fill-rule="evenodd" clip-rule="evenodd"/></clipPath><clipPath id="clip30"><path d="M392 552 488 552 488 648 392 648Z" fill-rule="evenodd" clip-rule="evenodd"/></clipPath></defs><g clip-path="url(#clip0)" transform="translate(-229 -61)"><path d="M398 377 400.235 377.076C413.08 377.424 426.379 377.606 440.001 377.606 453.623 377.606 466.922 377.424 479.767 377.076L482 377 455.238 554 420.374 529.375 398 377Z" fill="#78909C" fill-rule="evenodd"/><path d="M468 378 452.51 552 446.065 547.46 431 378.238 440.543 378.365Z" fill="#FFFFFF" fill-rule="evenodd" fill-opacity="0.14902"/><path d="M241 189 244.138 189 246.715 190.712C257.261 195.936 287.838 200.421 329.955 203.306L347.849 204.291 431 379 400.727 378.597 398.486 378.521 398.452 378.296 357.727 329.334Z" fill="#FFFFFF" fill-rule="evenodd" fill-opacity="0.14902"/><path d="M639 189 522.987 328.771 482.511 377.537 482.477 377.761 480.251 377.837 468 378 605.901 197.486 613.574 196.203C622.659 194.504 629.389 192.656 633.319 190.705L635.88 189Z" fill="#FFFFFF" fill-rule="evenodd" fill-opacity="0.14902"/><path d="M241 189 639 189 606.042 228.704 606.042 228.704 580.562 259.397 575.472 259.891C539.232 263.083 492.771 265 442.115 265 391.458 265 344.997 263.083 308.757 259.891L299.067 258.951 274.406 229.243 274.406 229.243Z" fill="#90A4AE" fill-rule="evenodd"/><path d="M349 318 361.018 318.626C385.969 319.767 413.402 320.398 442.197 320.398 470.993 320.398 498.425 319.767 523.377 318.626L531 318.229 522.295 328.857 481.906 378.163 481.873 378.389 479.651 378.466C466.874 378.816 453.644 379 440.094 379 426.543 379 413.314 378.816 400.536 378.466L398.313 378.389 398.28 378.162 357.893 328.857 349 318Z" fill="#546E7A" fill-rule="evenodd"/><path d="M677.678 183.703C670.277 183.703 664.277 184.854 664.277 186.274 664.277 187.693 670.277 188.844 677.678 188.844 685.079 188.844 691.078 187.693 691.078 186.274 691.078 184.854 685.079 183.703 677.678 183.703ZM668.5 180C691.42 180 710 183.134 710 187 710 190.866 691.42 194 668.5 194 645.58 194 627 190.866 627 187 627 183.134 645.58 180 668.5 180Z" stroke="#3A4950" stroke-width="2" stroke-miterlimit="8" fill="#586D77" fill-rule="evenodd"/><path d="M677.678 183.113C670.277 183.113 664.277 184.182 664.277 185.5 664.277 186.818 670.277 187.887 677.678 187.887 685.079 187.887 691.078 186.818 691.078 185.5 691.078 184.182 685.079 183.113 677.678 183.113ZM668.5 179C691.42 179 710 181.91 710 185.5 710 189.09 691.42 192 668.5 192 645.58 192 627 189.09 627 185.5 627 181.91 645.58 179 668.5 179Z" fill="#586D77" fill-rule="evenodd"/><path d="M231.5 189C231.5 176.574 325.296 166.5 441 166.5 556.704 166.5 650.5 176.574 650.5 189 650.5 201.426 556.704 211.5 441 211.5 325.296 211.5 231.5 201.426 231.5 189Z" stroke="#586D77" stroke-width="3" stroke-miterlimit="8" fill="#586D77" fill-rule="evenodd"/><path d="M243 186.5C243 175.178 331.2 166 440 166 548.8 166 637 175.178 637 186.5 637 197.822 548.8 207 440 207 331.2 207 243 197.822 243 186.5Z" fill="#78909C" fill-rule="evenodd"/><path d="M439.826 166C453.413 166 466.679 166.143 479.491 166.417L489 166.724 481.158 206.53 479.491 206.583C466.679 206.857 453.413 207 439.826 207 426.24 207 412.974 206.857 400.162 206.583L382.641 206.017 375 167.23 400.162 166.417C412.974 166.143 426.24 166 439.826 166Z" fill="#FFFFFF" fill-rule="evenodd" fill-opacity="0.14902"/><path d="M299 259 308.707 259.942C345.012 263.142 391.556 265.064 442.304 265.064 493.051 265.064 539.595 263.142 575.9 259.942L581 259.447 563.712 280.289 531.733 318.842 524.056 319.237C498.928 320.372 471.302 321 442.304 321 413.305 321 385.679 320.372 360.552 319.237L348.449 318.615 316.922 280.607Z" fill="#607D8B" fill-rule="evenodd"/><text font-family="Calibri,Calibri_MSFontService,sans-serif" font-weight="700" font-size="32" transform="translate(757.415 236)">CRITÉRIO 1</text><path d="M730.5 209.5 904.019 209.5" stroke="#657B89" stroke-width="0.333333" stroke-miterlimit="8" fill="none" fill-rule="evenodd"/><text font-family="Calibri,Calibri_MSFontService,sans-serif" font-weight="700" font-size="32" transform="translate(757.415 293)">CRITÉRIO 2</text><path d="M627.5 265.5 904.814 265.5" stroke="#657B89" stroke-width="0.333333" stroke-miterlimit="8" fill="none" fill-rule="evenodd"/><path d="M534.5 378.5 904.062 378.5" stroke="#657B89" stroke-width="0.333333" stroke-miterlimit="8" fill="none" fill-rule="evenodd"/><text font-family="Calibri,Calibri_MSFontService,sans-serif" font-weight="700" font-size="32" transform="translate(757.415 406)">CRITÉRIO 4</text><path d="M586.5 322.5 904.839 322.5" stroke="#657B89" stroke-width="0.333333" stroke-miterlimit="8" fill="none" fill-rule="evenodd"/><text font-family="Calibri,Calibri_MSFontService,sans-serif" font-weight="700" font-size="32" transform="translate(757.415 349)">CRITÉRIO 3</text><g clip-path="url(#clip1)"><g clip-path="url(#clip2)"><g clip-path="url(#clip3)"><path d="M295 73C295 77.4183 291.418 81 287 81 282.582 81 279 77.4183 279 73 279 68.5817 282.582 65 287 65 291.418 65 295 68.5817 295 73Z"/><path d="M308.8 114.2 303.2 90.4C303 89.6 302.6 88.8 302 88.2 299.6 86.2 296.8 84.8 293.6 83.8 291.4 83.4 289.2 83 287 83 284.8 83 282.6 83.4 280.4 84 277.2 84.8 274.4 86.4 272 88.4 271.4 89 271 89.8 270.8 90.6L265.2 114.4C265.2 114.6 265 115 265 115.4 265 117.6 266.8 119.4 269 119.4 270.8 119.4 272.4 118 272.8 116.4L277 99 277 155 285 155 285 119 289 119 289 155 297 155 297 98.8 301.2 116.2C301.6 117.8 303.2 119.2 305 119.2 307.2 119.2 309 117.4 309 115.2 309 114.8 308.8 114.4 308.8 114.2Z"/></g></g></g><g clip-path="url(#clip4)"><g clip-path="url(#clip5)"><g clip-path="url(#clip6)"><path d="M345 73C345 77.4183 341.418 81 337 81 332.582 81 329 77.4183 329 73 329 68.5817 332.582 65 337 65 341.418 65 345 68.5817 345 73Z" fill="#455A64"/><path d="M358.8 114.2 353.2 90.4C353 89.6 352.6 88.8 352 88.2 349.6 86.2 346.8 84.8 343.6 83.8 341.4 83.4 339.2 83 337 83 334.8 83 332.6 83.4 330.4 84 327.2 84.8 324.4 86.4 322 88.4 321.4 89 321 89.8 320.8 90.6L315.2 114.4C315.2 114.6 315 115 315 115.4 315 117.6 316.8 119.4 319 119.4 320.8 119.4 322.4 118 322.8 116.4L327 99 327 155 335 155 335 119 339 119 339 155 347 155 347 98.8 351.2 116.2C351.6 117.8 353.2 119.2 355 119.2 357.2 119.2 359 117.4 359 115.2 359 114.8 358.8 114.4 358.8 114.2Z" fill="#455A64"/></g></g></g><g clip-path="url(#clip7)"><g clip-path="url(#clip8)"><g clip-path="url(#clip9)"><path d="M395 73C395 77.4183 391.418 81 387 81 382.582 81 379 77.4183 379 73 379 68.5817 382.582 65 387 65 391.418 65 395 68.5817 395 73Z"/><path d="M408.8 114.2 403.2 90.4C403 89.6 402.6 88.8 402 88.2 399.6 86.2 396.8 84.8 393.6 83.8 391.4 83.4 389.2 83 387 83 384.8 83 382.6 83.4 380.4 84 377.2 84.8 374.4 86.4 372 88.4 371.4 89 371 89.8 370.8 90.6L365.2 114.4C365.2 114.6 365 115 365 115.4 365 117.6 366.8 119.4 369 119.4 370.8 119.4 372.4 118 372.8 116.4L377 99 377 155 385 155 385 119 389 119 389 155 397 155 397 98.8 401.2 116.2C401.6 117.8 403.2 119.2 405 119.2 407.2 119.2 409 117.4 409 115.2 409 114.8 408.8 114.4 408.8 114.2Z"/></g></g></g><g clip-path="url(#clip10)"><g clip-path="url(#clip11)"><g clip-path="url(#clip12)"><path d="M545 73C545 77.4183 541.418 81 537 81 532.582 81 529 77.4183 529 73 529 68.5817 532.582 65 537 65 541.418 65 545 68.5817 545 73Z"/><path d="M558.8 114.2 553.2 90.4C553 89.6 552.6 88.8 552 88.2 549.6 86.2 546.8 84.8 543.6 83.8 541.4 83.4 539.2 83 537 83 534.8 83 532.6 83.4 530.4 84 527.2 84.8 524.4 86.4 522 88.4 521.4 89 521 89.8 520.8 90.6L515.2 114.4C515.2 114.6 515 115 515 115.4 515 117.6 516.8 119.4 519 119.4 520.8 119.4 522.4 118 522.8 116.4L527 99 527 155 535 155 535 119 539 119 539 155 547 155 547 98.8 551.2 116.2C551.6 117.8 553.2 119.2 555 119.2 557.2 119.2 559 117.4 559 115.2 559 114.8 558.8 114.4 558.8 114.2Z"/></g></g></g><g clip-path="url(#clip13)"><g clip-path="url(#clip14)"><g clip-path="url(#clip15)"><path d="M495 73C495 77.4183 491.418 81 487 81 482.582 81 479 77.4183 479 73 479 68.5817 482.582 65 487 65 491.418 65 495 68.5817 495 73Z"/><path d="M508.8 114.2 503.2 90.4C503 89.6 502.6 88.8 502 88.2 499.6 86.2 496.8 84.8 493.6 83.8 491.4 83.4 489.2 83 487 83 484.8 83 482.6 83.4 480.4 84 477.2 84.8 474.4 86.4 472 88.4 471.4 89 471 89.8 470.8 90.6L465.2 114.4C465.2 114.6 465 115 465 115.4 465 117.6 466.8 119.4 469 119.4 470.8 119.4 472.4 118 472.8 116.4L477 99 477 155 485 155 485 119 489 119 489 155 497 155 497 98.8 501.2 116.2C501.6 117.8 503.2 119.2 505 119.2 507.2 119.2 509 117.4 509 115.2 509 114.8 508.8 114.4 508.8 114.2Z"/></g></g></g><g clip-path="url(#clip16)"><g clip-path="url(#clip17)"><g clip-path="url(#clip18)"><path d="M595 73C595 77.4183 591.418 81 587 81 582.582 81 579 77.4183 579 73 579 68.5817 582.582 65 587 65 591.418 65 595 68.5817 595 73Z" fill="#455A64"/><path d="M608.8 114.2 603.2 90.4C603 89.6 602.6 88.8 602 88.2 599.6 86.2 596.8 84.8 593.6 83.8 591.4 83.4 589.2 83 587 83 584.8 83 582.6 83.4 580.4 84 577.2 84.8 574.4 86.4 572 88.4 571.4 89 571 89.8 570.8 90.6L565.2 114.4C565.2 114.6 565 115 565 115.4 565 117.6 566.8 119.4 569 119.4 570.8 119.4 572.4 118 572.8 116.4L577 99 577 155 585 155 585 119 589 119 589 155 597 155 597 98.8 601.2 116.2C601.6 117.8 603.2 119.2 605 119.2 607.2 119.2 609 117.4 609 115.2 609 114.8 608.8 114.4 608.8 114.2Z" fill="#455A64"/></g></g></g><g clip-path="url(#clip19)"><g clip-path="url(#clip20)"><g clip-path="url(#clip21)"><path d="M445 73C445 77.4183 441.418 81 437 81 432.582 81 429 77.4183 429 73 429 68.5817 432.582 65 437 65 441.418 65 445 68.5817 445 73Z" fill="#455A64"/><path d="M458.8 114.2 453.2 90.4C453 89.6 452.6 88.8 452 88.2 449.6 86.2 446.8 84.8 443.6 83.8 441.4 83.4 439.2 83 437 83 434.8 83 432.6 83.4 430.4 84 427.2 84.8 424.4 86.4 422 88.4 421.4 89 421 89.8 420.8 90.6L415.2 114.4C415.2 114.6 415 115 415 115.4 415 117.6 416.8 119.4 419 119.4 420.8 119.4 422.4 118 422.8 116.4L427 99 427 155 435 155 435 119 439 119 439 155 447 155 447 98.8 451.2 116.2C451.6 117.8 453.2 119.2 455 119.2 457.2 119.2 459 117.4 459 115.2 459 114.8 458.8 114.4 458.8 114.2Z" fill="#455A64"/></g></g></g><g clip-path="url(#clip22)"><g clip-path="url(#clip23)"><g clip-path="url(#clip24)"><path d="M405 563C405 567.418 401.418 571 397 571 392.582 571 389 567.418 389 563 389 558.582 392.582 555 397 555 401.418 555 405 558.582 405 563Z" fill="#455A64"/><path d="M418.8 604.2 413.2 580.4C413 579.6 412.6 578.8 412 578.2 409.6 576.2 406.8 574.8 403.6 573.8 401.4 573.4 399.2 573 397 573 394.8 573 392.6 573.4 390.4 574 387.2 574.8 384.4 576.4 382 578.4 381.4 579 381 579.8 380.8 580.6L375.2 604.4C375.2 604.6 375 605 375 605.4 375 607.6 376.8 609.4 379 609.4 380.8 609.4 382.4 608 382.8 606.4L387 589 387 645 395 645 395 609 399 609 399 645 407 645 407 588.8 411.2 606.2C411.6 607.8 413.2 609.2 415 609.2 417.2 609.2 419 607.4 419 605.2 419 604.8 418.8 604.4 418.8 604.2Z" fill="#455A64"/></g></g></g><g clip-path="url(#clip25)"><g clip-path="url(#clip26)"><g clip-path="url(#clip27)"><path d="M492 563C492 567.418 488.418 571 484 571 479.582 571 476 567.418 476 563 476 558.582 479.582 555 484 555 488.418 555 492 558.582 492 563Z" fill="#455A64"/><path d="M505.8 604.2 500.2 580.4C500 579.6 499.6 578.8 499 578.2 496.6 576.2 493.8 574.8 490.6 573.8 488.4 573.4 486.2 573 484 573 481.8 573 479.6 573.4 477.4 574 474.2 574.8 471.4 576.4 469 578.4 468.4 579 468 579.8 467.8 580.6L462.2 604.4C462.2 604.6 462 605 462 605.4 462 607.6 463.8 609.4 466 609.4 467.8 609.4 469.4 608 469.8 606.4L474 589 474 645 482 645 482 609 486 609 486 645 494 645 494 588.8 498.2 606.2C498.6 607.8 500.2 609.2 502 609.2 504.2 609.2 506 607.4 506 605.2 506 604.8 505.8 604.4 505.8 604.2Z" fill="#455A64"/></g></g></g><g clip-path="url(#clip28)"><g clip-path="url(#clip29)"><g clip-path="url(#clip30)"><path d="M448 563C448 567.418 444.418 571 440 571 435.582 571 432 567.418 432 563 432 558.582 435.582 555 440 555 444.418 555 448 558.582 448 563Z" fill="#455A64"/><path d="M461.8 604.2 456.2 580.4C456 579.6 455.6 578.8 455 578.2 452.6 576.2 449.8 574.8 446.6 573.8 444.4 573.4 442.2 573 440 573 437.8 573 435.6 573.4 433.4 574 430.2 574.8 427.4 576.4 425 578.4 424.4 579 424 579.8 423.8 580.6L418.2 604.4C418.2 604.6 418 605 418 605.4 418 607.6 419.8 609.4 422 609.4 423.8 609.4 425.4 608 425.8 606.4L430 589 430 645 438 645 438 609 442 609 442 645 450 645 450 588.8 454.2 606.2C454.6 607.8 456.2 609.2 458 609.2 460.2 609.2 462 607.4 462 605.2 462 604.8 461.8 604.4 461.8 604.2Z" fill="#455A64"/></g></g></g></g></svg>